<svg width="245" height="35" viewBox="0 0 245 35" fill="none" xmlns="http://www.w3.org/2000/svg">
<path d="M8.12 34H0.92V1.84H17.72C25.16 1.84 29.96 6.064 29.96 13.456C29.96 20.848 25.16 25.12 17.72 25.12H8.12V34ZM16.952 8.32H8.12V18.64H16.952C20.936 18.64 22.808 17.488 22.808 13.456C22.808 9.52 20.936 8.32 16.952 8.32ZM45.3298 34.48C37.1218 34.48 31.6018 29.584 31.6018 22C31.6018 14.32 37.1218 9.472 45.3298 9.472C53.5378 9.472 59.0578 14.32 59.0578 22C59.0578 29.584 53.5378 34.48 45.3298 34.48ZM45.3298 28.096C50.1778 28.096 51.9058 26.224 51.9058 22C51.9058 17.776 50.1778 15.808 45.3298 15.808C40.4338 15.808 38.7538 17.776 38.7538 22C38.7538 26.224 40.4338 28.096 45.3298 28.096ZM69.1981 34H61.9981V1.84H69.1981V18.88H74.6701L80.8141 9.952H89.3581L80.5741 21.568L89.2141 34H80.7181L74.7181 25.312H69.1981V34ZM107.476 7.12H99.6995L105.988 0.879997H116.356L107.476 7.12ZM103.876 34.48C95.8595 34.48 90.3875 30.544 90.3875 22C90.3875 14.32 95.8115 9.472 103.732 9.472C111.604 9.472 116.836 13.6 116.836 21.136C116.836 22 116.74 22.624 116.644 23.44H97.0595C97.2515 27.136 98.9795 28.72 103.636 28.72C107.908 28.72 109.396 27.616 109.396 25.552V25.072H116.596V25.6C116.596 30.832 111.508 34.48 103.876 34.48ZM103.588 15.088C99.3155 15.088 97.4915 16.528 97.1555 19.648H109.924C109.732 16.48 107.812 15.088 103.588 15.088Z" fill="black"/>
<path d="M133.967 34H127.295V1.84H134.495V16.336H134.879C135.695 12.304 138.623 9.472 144.335 9.472C151.535 9.472 155.567 14.32 155.567 22C155.567 29.584 151.487 34.48 143.999 34.48C138.431 34.48 135.263 32.08 134.399 27.328H133.967V34ZM134.495 22.144C134.495 26.32 136.943 27.904 141.503 27.904C146.159 27.904 148.271 26.368 148.271 22C148.271 17.584 146.159 16.048 141.551 16.048C136.895 16.048 134.495 17.584 134.495 21.76V22.144ZM171.377 34.48C163.169 34.48 157.649 29.584 157.649 22C157.649 14.32 163.169 9.472 171.377 9.472C179.585 9.472 185.105 14.32 185.105 22C185.105 29.584 179.585 34.48 171.377 34.48ZM171.377 28.096C176.225 28.096 177.953 26.224 177.953 22C177.953 17.776 176.225 15.808 171.377 15.808C166.481 15.808 164.801 17.776 164.801 22C164.801 26.224 166.481 28.096 171.377 28.096ZM200.861 34.48C192.653 34.48 187.133 29.584 187.133 22C187.133 14.32 192.653 9.472 200.861 9.472C209.069 9.472 214.589 14.32 214.589 22C214.589 29.584 209.069 34.48 200.861 34.48ZM200.861 28.096C205.709 28.096 207.437 26.224 207.437 22C207.437 17.776 205.709 15.808 200.861 15.808C195.965 15.808 194.285 17.776 194.285 22C194.285 26.224 195.965 28.096 200.861 28.096ZM224.729 34H217.529V1.84H224.729V18.88H230.201L236.345 9.952H244.889L236.105 21.568L244.745 34H236.249L230.249 25.312H224.729V34Z" fill="#E85382"/>
</svg>
